<svg width="20" height="20" viewBox="0 0 20 20" fill="none" xmlns="http://www.w3.org/2000/svg">
<circle cx="10" cy="10" r="10" fill="#295BD3"/>
<g clip-path="url(#clip0_0_1)">
<path fill-rule="evenodd" clip-rule="evenodd" d="M13.3832 6.24348C13.3552 6.13113 13.2688 6.04258 13.1572 6.01167C13.0456 5.98076 12.926 6.01227 12.8441 6.09415L11.5584 7.37987C11.4786 7.4597 11.4465 7.57557 11.4739 7.68511L11.7058 8.61292C11.7027 8.61586 11.6996 8.61885 11.6966 8.6219L10.1588 10.1597C9.97049 10.348 9.97049 10.6533 10.1588 10.8416C10.3471 11.0299 10.6523 11.0299 10.8406 10.8416L12.3784 9.30375C12.3816 9.30063 12.3846 9.29749 12.3876 9.29431L13.3149 9.52612C13.4244 9.55351 13.5403 9.52142 13.6201 9.44158L14.9058 8.15586C14.9877 8.07398 15.0192 7.95438 14.9883 7.84278C14.9574 7.73118 14.8689 7.64483 14.7565 7.61675L13.6579 7.34209L13.3832 6.24348ZM10.7039 6.48734C10.7223 6.75298 10.522 6.98329 10.2563 7.00174C9.58476 7.0484 8.94071 7.28685 8.40069 7.68876C7.86066 8.09067 7.44736 8.63917 7.20988 9.26906C6.97241 9.89895 6.92074 10.5838 7.06102 11.2422C7.2013 11.9006 7.52762 12.5049 8.00123 12.9832C8.47484 13.4616 9.07582 13.794 9.73277 13.9409C10.3897 14.0878 11.075 14.043 11.7073 13.8119C12.3395 13.5808 12.8921 13.173 13.2995 12.637C13.7068 12.1011 13.9517 11.4594 14.0051 10.7884C14.0262 10.523 14.2585 10.3249 14.524 10.346C14.7894 10.3671 14.9875 10.5994 14.9663 10.8649C14.8983 11.72 14.5863 12.5375 14.0672 13.2205C13.5482 13.9034 12.844 14.423 12.0384 14.7175C11.2327 15.0121 10.3595 15.0691 9.52236 14.882C8.68525 14.6948 7.91945 14.2713 7.31596 13.6617C6.71247 13.0521 6.29665 12.2821 6.1179 11.4431C5.93915 10.6042 6.00499 9.73153 6.30759 8.92889C6.6102 8.12625 7.13684 7.42734 7.82496 6.9152C8.51309 6.40307 9.33376 6.09923 10.1895 6.03978C10.4551 6.02132 10.6854 6.2217 10.7039 6.48734ZM10.2721 8.60869C10.3691 8.85665 10.2468 9.13635 9.99885 9.23342C9.78785 9.31602 9.60077 9.44991 9.45453 9.62299C9.30829 9.79606 9.20749 10.0029 9.16126 10.2247C9.11502 10.4465 9.12481 10.6764 9.18974 10.8934C9.25466 11.1105 9.37267 11.308 9.5331 11.468C9.69353 11.6281 9.89131 11.7456 10.1086 11.8099C10.3258 11.8743 10.5557 11.8835 10.7774 11.8367C10.9991 11.7899 11.2056 11.6885 11.3783 11.5419C11.551 11.3952 11.6845 11.2077 11.7665 10.9965C11.8629 10.7483 12.1423 10.6253 12.3905 10.7217C12.6387 10.8182 12.7618 11.0975 12.6653 11.3457C12.5253 11.7064 12.2975 12.0264 12.0026 12.2768C11.7077 12.5272 11.3551 12.7002 10.9766 12.7801C10.5981 12.8601 10.2056 12.8444 9.83465 12.7345C9.46372 12.6246 9.12603 12.424 8.85213 12.1508C8.57822 11.8776 8.37673 11.5404 8.26588 11.1697C8.15503 10.7991 8.13832 10.4067 8.21725 10.0279C8.29619 9.6492 8.46829 9.29613 8.71798 9.00063C8.96767 8.70512 9.28708 8.47652 9.64732 8.33549C9.89528 8.23842 10.175 8.36073 10.2721 8.60869Z" fill="#F0F0F0"/>
</g>
<defs>
<clipPath id="clip0_0_1">
<rect width="9" height="9" fill="white" transform="translate(6 6)"/>
</clipPath>
</defs>
</svg>
