<svg width="20" height="20" viewBox="0 0 20 20" fill="none" xmlns="http://www.w3.org/2000/svg">
<circle cx="10" cy="10" r="10" fill="#295BD3"/>
<path d="M15.0833 9.72917H13.7083C13.2042 9.72917 12.7917 10.1417 12.7917 10.6458C12.7917 11.15 13.2042 11.5625 13.7083 11.5625H15.0833M15.0833 9.5V11.7917C15.0833 13.1667 14.1667 14.0833 12.7917 14.0833H8.20834C6.83334 14.0833 5.91667 13.1667 5.91667 11.7917V9.5C5.91667 8.25333 6.66834 7.3825 7.83709 7.23583C7.95626 7.2175 8.08 7.20833 8.20834 7.20833H12.7917C12.9108 7.20833 13.0254 7.21291 13.1354 7.23125C14.3179 7.36875 15.0833 8.24417 15.0833 9.5ZM13.1361 7.23125C13.0261 7.21292 12.9115 7.20834 12.7923 7.20834H8.20898C8.08065 7.20834 7.9569 7.21751 7.83773 7.23584C7.9019 7.10751 7.99357 6.98834 8.10357 6.87834L9.59315 5.38417C10.2211 4.76083 11.2386 4.76083 11.8665 5.38417L12.6686 6.19543C12.9619 6.48418 13.1177 6.85083 13.1361 7.23125Z" stroke="#F0F0F0" stroke-width="0.5" stroke-linecap="round" stroke-linejoin="round"/>
</svg>
